<svg width="24" height="26" viewBox="0 0 24 26" fill="none" xmlns="http://www.w3.org/2000/svg">
<path d="M7.22449 25.8901C6.61225 25.8901 6.09184 25.6632 5.66327 25.2096C5.23469 24.756 5.02041 24.2051 5.02041 23.557C5.02041 22.909 5.23469 22.3581 5.66327 21.9045C6.09184 21.4508 6.61225 21.224 7.22449 21.224C7.83673 21.224 8.35714 21.4508 8.78571 21.9045C9.21429 22.3581 9.42857 22.909 9.42857 23.557C9.42857 24.2051 9.21429 24.756 8.78571 25.2096C8.35714 25.6632 7.83673 25.8901 7.22449 25.8901ZM19.4694 25.8901C18.8571 25.8901 18.3367 25.6632 17.9082 25.2096C17.4796 24.756 17.2653 24.2051 17.2653 23.557C17.2653 22.909 17.4796 22.3581 17.9082 21.9045C18.3367 21.4508 18.8571 21.224 19.4694 21.224C20.0816 21.224 20.602 21.4508 21.0306 21.9045C21.4592 22.3581 21.6735 22.909 21.6735 23.557C21.6735 24.2051 21.4592 24.756 21.0306 25.2096C20.602 25.6632 20.0816 25.8901 19.4694 25.8901ZM5.63265 4.50403L9 11.8919H17.8163L21.6429 4.50403H5.63265ZM4.71429 2.55984H22.7449C23.2143 2.55984 23.5714 2.78667 23.8163 3.24031C24.0612 3.69395 24.0612 4.1476 23.8163 4.60124L19.6837 12.4752C19.4592 12.8856 19.1684 13.2151 18.8112 13.4635C18.4541 13.7119 18.0612 13.8361 17.6327 13.8361H8.35714L6.64286 17.206H21.6735V19.1502H6.91837C6.06122 19.1502 5.44388 18.8478 5.06633 18.2429C4.68878 17.6381 4.69388 16.9576 5.08163 16.2015L7.04082 12.378L2.38776 1.94419H0V0H3.58163L4.71429 2.55984ZM9 11.8919H17.8163H9Z" fill="#4F4F4F"/>
</svg>
