<svg width="149" height="24" viewBox="0 0 149 24" fill="none" xmlns="http://www.w3.org/2000/svg">
<path d="M11.664 22.264C9.85067 22.968 8.12267 23.32 6.48 23.32C6.13867 23.32 5.616 23.288 4.912 23.224C4.22933 23.16 3.49333 22.9253 2.704 22.52C1.936 22.0933 1.30667 21.432 0.816 20.536C0.346667 19.6187 0.112 18.488 0.112 17.144V6.872C0.112 5.25067 0.336 4.024 0.784 3.192C1.25333 2.36 1.95733 1.656 2.896 1.08C3.856 0.546665 4.99733 0.279999 6.32 0.279999C7.96267 0.279999 9.47733 0.631999 10.864 1.336L10.352 2.552C9.136 2.104 7.984 1.88 6.896 1.88C3.568 1.88 1.904 3.448 1.904 6.584V17.08C1.904 19.8747 3.25867 21.4 5.968 21.656C6.18133 21.6987 6.40533 21.72 6.64 21.72C7.92 21.72 9.46667 21.4 11.28 20.76L11.664 22.264ZM16.2255 23H14.4335V0.599998H16.2255V23ZM33.2133 12.888V17.112C33.2133 18.904 32.7226 20.3867 31.7413 21.56C30.7599 22.7333 29.2773 23.32 27.2933 23.32C25.3093 23.32 23.8053 22.7333 22.7812 21.56C21.7786 20.3653 21.2773 18.8827 21.2773 17.112V12.888C21.2773 10.8613 21.7893 9.31467 22.8133 8.248C23.8586 7.16 25.3306 6.616 27.2292 6.616C29.1279 6.616 30.5999 7.18133 31.6453 8.312C32.6906 9.42133 33.2133 10.9467 33.2133 12.888ZM31.4213 17.432V12.888C31.4213 9.79467 30.0453 8.248 27.2933 8.248C24.4773 8.248 23.0693 9.79467 23.0693 12.888V17.432C23.0693 18.712 23.4426 19.7467 24.1893 20.536C24.9573 21.3253 25.9919 21.72 27.2933 21.72C28.6159 21.72 29.6293 21.336 30.3333 20.568C31.0586 19.7787 31.4213 18.7333 31.4213 17.432ZM47.3693 23H45.6093L45.7373 21.368C45.2253 22.008 44.5746 22.4987 43.7853 22.84C43.0173 23.1813 42.2386 23.352 41.4493 23.352C37.4386 23.352 35.4333 21.4 35.4333 17.496V6.968H37.2253V17.72C37.2253 19.0853 37.5986 20.0987 38.3453 20.76C39.1133 21.4213 40.1479 21.752 41.4493 21.752C44.2013 21.752 45.5773 20.408 45.5773 17.72V6.968H47.3693V23ZM56.8818 6.712C58.6524 6.712 60.0604 7.08533 61.1058 7.832V0.599998H62.8978V23C61.0631 23.256 59.3671 23.384 57.8098 23.384C56.2524 23.384 54.8444 23.064 53.5858 22.424C51.9218 21.5707 51.0898 20.088 51.0898 17.976V11.928C51.0898 9.688 51.9964 8.152 53.8098 7.32C54.6844 6.91467 55.7084 6.712 56.8818 6.712ZM61.1058 9.4C59.8044 8.67467 58.3858 8.312 56.8498 8.312C55.5058 8.312 54.5031 8.65333 53.8418 9.336C53.1804 10.0187 52.8498 10.9147 52.8498 12.024V18.008C52.8498 20.504 54.5244 21.752 57.8738 21.752C58.8338 21.752 59.9111 21.656 61.1058 21.464V9.4ZM65.1208 18.936H66.8168C66.9448 19.896 67.4248 20.6213 68.2568 21.112C69.0888 21.5813 69.9954 21.816 70.9768 21.816C71.9794 21.816 72.8754 21.6027 73.6648 21.176C74.4541 20.728 74.8488 20.0667 74.8488 19.192C74.8488 18.296 74.5394 17.6027 73.9208 17.112C73.3234 16.6213 72.5874 16.2373 71.7128 15.96C70.8381 15.6827 69.9528 15.3947 69.0568 15.096C68.1608 14.776 67.3714 14.3067 66.6888 13.688C65.8781 12.9627 65.4728 12.0667 65.4728 11C65.4728 9.912 65.8994 8.90933 66.7528 7.992C67.6274 7.05333 69.0354 6.584 70.9768 6.584C71.6594 6.584 72.2994 6.66933 72.8968 6.84C73.4941 6.98933 73.9208 7.13867 74.1768 7.288L74.5608 7.512L73.9528 8.984C73.1848 8.42933 72.2248 8.152 71.0728 8.152C69.9208 8.152 68.9928 8.39733 68.2888 8.888C67.6061 9.37867 67.2648 10.04 67.2648 10.872C67.2648 11.6827 67.6168 12.3227 68.3208 12.792C69.0248 13.24 69.8248 13.6027 70.7208 13.88C71.6381 14.136 72.5448 14.4347 73.4408 14.776C74.3368 15.1173 75.0941 15.64 75.7128 16.344C76.3314 17.048 76.6408 17.9867 76.6408 19.16C76.6408 20.3333 76.1608 21.3467 75.2008 22.2C74.2621 23.0533 72.8754 23.48 71.0408 23.48C69.2274 23.48 67.7981 23.0427 66.7528 22.168C65.7074 21.2933 65.1634 20.216 65.1208 18.936ZM91.414 22.264C89.6007 22.968 87.8727 23.32 86.23 23.32C85.8887 23.32 85.366 23.288 84.662 23.224C83.9793 23.16 83.2433 22.9253 82.454 22.52C81.686 22.0933 81.0567 21.432 80.566 20.536C80.0967 19.6187 79.862 18.488 79.862 17.144V6.872C79.862 5.25067 80.086 4.024 80.534 3.192C81.0033 2.36 81.7073 1.656 82.646 1.08C83.606 0.546665 84.7473 0.279999 86.07 0.279999C87.7127 0.279999 89.2273 0.631999 90.614 1.336L90.102 2.552C88.886 2.104 87.734 1.88 86.646 1.88C83.318 1.88 81.654 3.448 81.654 6.584V17.08C81.654 19.8747 83.0087 21.4 85.718 21.656C85.9313 21.6987 86.1553 21.72 86.39 21.72C87.67 21.72 89.2167 21.4 91.03 20.76L91.414 22.264ZM95.9755 23H94.1835V0.599998H95.9755V23ZM112.963 12.888V17.112C112.963 18.904 112.473 20.3867 111.491 21.56C110.51 22.7333 109.027 23.32 107.043 23.32C105.059 23.32 103.555 22.7333 102.531 21.56C101.529 20.3653 101.027 18.8827 101.027 17.112V12.888C101.027 10.8613 101.539 9.31467 102.563 8.248C103.609 7.16 105.081 6.616 106.979 6.616C108.878 6.616 110.35 7.18133 111.395 8.312C112.441 9.42133 112.963 10.9467 112.963 12.888ZM111.171 17.432V12.888C111.171 9.79467 109.795 8.248 107.043 8.248C104.227 8.248 102.819 9.79467 102.819 12.888V17.432C102.819 18.712 103.193 19.7467 103.939 20.536C104.707 21.3253 105.742 21.72 107.043 21.72C108.366 21.72 109.379 21.336 110.083 20.568C110.809 19.7787 111.171 18.7333 111.171 17.432ZM115.183 18.936H116.879C117.007 19.896 117.487 20.6213 118.319 21.112C119.151 21.5813 120.058 21.816 121.039 21.816C122.042 21.816 122.938 21.6027 123.727 21.176C124.517 20.728 124.911 20.0667 124.911 19.192C124.911 18.296 124.602 17.6027 123.983 17.112C123.386 16.6213 122.65 16.2373 121.775 15.96C120.901 15.6827 120.015 15.3947 119.119 15.096C118.223 14.776 117.434 14.3067 116.751 13.688C115.941 12.9627 115.535 12.0667 115.535 11C115.535 9.912 115.962 8.90933 116.815 7.992C117.69 7.05333 119.098 6.584 121.039 6.584C121.722 6.584 122.362 6.66933 122.959 6.84C123.557 6.98933 123.983 7.13867 124.239 7.288L124.623 7.512L124.015 8.984C123.247 8.42933 122.287 8.152 121.135 8.152C119.983 8.152 119.055 8.39733 118.351 8.888C117.669 9.37867 117.327 10.04 117.327 10.872C117.327 11.6827 117.679 12.3227 118.383 12.792C119.087 13.24 119.887 13.6027 120.783 13.88C121.701 14.136 122.607 14.4347 123.503 14.776C124.399 15.1173 125.157 15.64 125.775 16.344C126.394 17.048 126.703 17.9867 126.703 19.16C126.703 20.3333 126.223 21.3467 125.263 22.2C124.325 23.0533 122.938 23.48 121.103 23.48C119.29 23.48 117.861 23.0427 116.815 22.168C115.77 21.2933 115.226 20.216 115.183 18.936ZM134.277 21.816C135.749 21.816 137.306 21.3787 138.949 20.504L139.653 21.88C138.01 22.8827 136.293 23.384 134.501 23.384C130.789 23.384 128.933 21.8267 128.933 18.712V12.152C128.933 10.424 129.466 9.08 130.533 8.12C131.621 7.16 133.05 6.68 134.821 6.68C136.591 6.68 137.967 7.16 138.949 8.12C139.951 9.05867 140.453 10.3707 140.453 12.056V16.216L130.725 16.76V18.712C130.725 19.864 131.141 20.696 131.973 21.208C132.613 21.6133 133.381 21.816 134.277 21.816ZM138.661 14.616V11.832C138.661 10.9147 138.415 10.168 137.925 9.592C137.434 8.99467 136.922 8.62133 136.389 8.472C135.855 8.30133 135.322 8.216 134.789 8.216C133.615 8.216 132.645 8.536 131.877 9.176C131.109 9.816 130.725 10.8187 130.725 12.184V15L138.661 14.616ZM147 22.04L146.488 23.416C145.293 23.0747 144.429 22.5307 143.896 21.784C143.362 21.0373 143.096 20.0347 143.096 18.776V0.599998H144.888V6.968H148.728L147.96 8.664H144.888V18.776C144.888 20.4827 145.592 21.5707 147 22.04Z" fill="#D56EF5"/>
<path d="M11.664 22.264L11.845 22.7301L12.2581 22.5697L12.1485 22.1403L11.664 22.264ZM4.912 23.224L4.86533 23.7218L4.86673 23.7219L4.912 23.224ZM2.704 22.52L2.46118 22.9571L2.46833 22.961L2.4756 22.9648L2.704 22.52ZM0.816 20.536L0.3707 20.7638L0.377452 20.7762L0.816 20.536ZM0.784 3.192L0.348427 2.94629L0.343765 2.95495L0.784 3.192ZM2.896 1.08L2.65318 0.64292L2.64372 0.648175L2.63449 0.653836L2.896 1.08ZM10.864 1.336L11.3248 1.53003L11.5055 1.10093L11.0903 0.890165L10.864 1.336ZM10.352 2.552L10.1791 3.02117L10.6274 3.18633L10.8128 2.74603L10.352 2.552ZM5.968 21.656L6.06606 21.1657L6.04074 21.1606L6.01503 21.1582L5.968 21.656ZM11.28 20.76L11.7645 20.6363L11.6292 20.1065L11.1136 20.2885L11.28 20.76ZM11.483 21.7979C9.717 22.4835 8.05051 22.82 6.48 22.82V23.82C8.19482 23.82 9.98433 23.4525 11.845 22.7301L11.483 21.7979ZM6.48 22.82C6.16249 22.82 5.65856 22.7898 4.95727 22.7261L4.86673 23.7219C5.57344 23.7862 6.11484 23.82 6.48 23.82V22.82ZM4.95867 22.7262C4.35504 22.6696 3.68097 22.4596 2.9324 22.0752L2.4756 22.9648C3.3057 23.3911 4.10363 23.6504 4.86533 23.7218L4.95867 22.7262ZM2.94682 22.0829C2.27404 21.7092 1.70739 21.1228 1.25455 20.2958L0.377452 20.7762C0.905942 21.7412 1.59796 22.4775 2.46118 22.9571L2.94682 22.0829ZM1.26112 20.3083C0.837137 19.4796 0.612 18.4321 0.612 17.144H-0.388C-0.388 18.5439 -0.143804 19.7578 0.370876 20.7637L1.26112 20.3083ZM0.612 17.144V6.872H-0.388V17.144H0.612ZM0.612 6.872C0.612 5.28182 0.834232 4.15334 1.22424 3.42905L0.343765 2.95495C-0.162232 3.89466 -0.388 5.21951 -0.388 6.872H0.612ZM1.21949 3.43766C1.6411 2.69026 2.28005 2.0446 3.15751 1.50616L2.63449 0.653836C1.63462 1.26739 0.865569 2.02973 0.348511 2.94634L1.21949 3.43766ZM3.13882 1.51708C4.01075 1.03267 5.065 0.779999 6.32 0.779999V-0.220001C4.92967 -0.220001 3.70125 0.0606594 2.65318 0.64292L3.13882 1.51708ZM6.32 0.779999C7.88856 0.779999 9.32507 1.11545 10.6377 1.78183L11.0903 0.890165C9.62959 0.148552 8.03677 -0.220001 6.32 -0.220001V0.779999ZM10.4032 1.14197L9.89118 2.35797L10.8128 2.74603L11.3248 1.53003L10.4032 1.14197ZM10.5249 2.08283C9.26382 1.61824 8.05306 1.38 6.896 1.38V2.38C7.91494 2.38 9.00818 2.58976 10.1791 3.02117L10.5249 2.08283ZM6.896 1.38C5.16209 1.38 3.76866 1.78791 2.8091 2.6921C1.84396 3.60156 1.404 4.93108 1.404 6.584H2.404C2.404 5.10092 2.79604 4.07844 3.4949 3.41989C4.19934 2.75609 5.30191 2.38 6.896 2.38V1.38ZM1.404 6.584V17.08H2.404V6.584H1.404ZM1.404 17.08C1.404 18.5542 1.7617 19.7687 2.54615 20.652C3.33238 21.5373 4.48332 22.0179 5.92097 22.1538L6.01503 21.1582C4.74335 21.0381 3.86229 20.628 3.29385 19.988C2.72363 19.3459 2.404 18.4005 2.404 17.08H1.404ZM5.86994 22.1463C6.11798 22.1959 6.37496 22.22 6.64 22.22V21.22C6.4357 21.22 6.24469 21.2014 6.06606 21.1657L5.86994 22.1463ZM6.64 22.22C7.9976 22.22 9.60374 21.8818 11.4464 21.2315L11.1136 20.2885C9.32959 20.9182 7.8424 21.22 6.64 21.22V22.22ZM10.7955 20.8837L11.1795 22.3877L12.1485 22.1403L11.7645 20.6363L10.7955 20.8837ZM16.2255 23V23.5H16.7255V23H16.2255ZM14.4335 23H13.9335V23.5H14.4335V23ZM14.4335 0.599998V0.0999985H13.9335V0.599998H14.4335ZM16.2255 0.599998H16.7255V0.0999985H16.2255V0.599998ZM16.2255 22.5H14.4335V23.5H16.2255V22.5ZM14.9335 23V0.599998H13.9335V23H14.9335ZM14.4335 1.1H16.2255V0.0999985H14.4335V1.1ZM15.7255 0.599998V23H16.7255V0.599998H15.7255ZM31.7412 21.56L31.3577 21.2392L31.7412 21.56ZM22.7812 21.56L22.3982 21.8815L22.4045 21.8888L22.7812 21.56ZM22.8132 8.248L22.4527 7.90159L22.4526 7.90173L22.8132 8.248ZM31.6452 8.312L31.2781 8.65144L31.2814 8.6549L31.6452 8.312ZM24.1893 20.536L23.826 20.8796L23.8309 20.8847L24.1893 20.536ZM30.3333 20.568L29.9651 20.2297L29.9647 20.2301L30.3333 20.568ZM32.7132 12.888V17.112H33.7132V12.888H32.7132ZM32.7132 17.112C32.7132 18.8079 32.2513 20.1708 31.3577 21.2392L32.1248 21.8808C33.1939 20.6025 33.7132 19.0001 33.7132 17.112H32.7132ZM31.3577 21.2392C30.498 22.2671 29.1764 22.82 27.2933 22.82V23.82C29.3781 23.82 31.0218 23.1995 32.1248 21.8808L31.3577 21.2392ZM27.2933 22.82C25.4112 22.82 24.0623 22.2674 23.158 21.2312L22.4045 21.8888C23.5482 23.1993 25.2073 23.82 27.2933 23.82V22.82ZM23.1642 21.2386C22.2473 20.1461 21.7773 18.782 21.7773 17.112H20.7773C20.7773 18.9834 21.3098 20.5846 22.3983 21.8814L23.1642 21.2386ZM21.7773 17.112V12.888H20.7773V17.112H21.7773ZM21.7773 12.888C21.7773 10.9418 22.2681 9.53782 23.1739 8.59426L22.4526 7.90173C21.3104 9.09151 20.7773 10.7809 20.7773 12.888H21.7773ZM23.1738 8.59441C24.1018 7.62852 25.4294 7.116 27.2292 7.116V6.116C25.2318 6.116 23.6154 6.69148 22.4527 7.90159L23.1738 8.59441ZM27.2292 7.116C29.0234 7.116 30.3488 7.64622 31.2781 8.65143L32.0124 7.97257C30.8511 6.71645 29.2324 6.116 27.2292 6.116V7.116ZM31.2814 8.6549C32.2172 9.64805 32.7132 11.0379 32.7132 12.888H33.7132C33.7132 10.8555 33.164 9.19461 32.0091 7.9691L31.2814 8.6549ZM31.9212 17.432V12.888H30.9212V17.432H31.9212ZM31.9212 12.888C31.9212 11.2777 31.5644 9.97663 30.7628 9.07566C29.9513 8.16354 28.7624 7.748 27.2933 7.748V8.748C28.5761 8.748 29.4512 9.10579 30.0157 9.74034C30.5901 10.386 30.9212 11.4049 30.9212 12.888H31.9212ZM27.2933 7.748C25.7954 7.748 24.5839 8.16149 23.7555 9.07141C22.9353 9.97242 22.5693 11.2753 22.5693 12.888H23.5693C23.5693 11.4074 23.9072 10.3902 24.495 9.74459C25.0746 9.10784 25.9751 8.748 27.2933 8.748V7.748ZM22.5693 12.888V17.432H23.5693V12.888H22.5693ZM22.5693 17.432C22.5693 18.8155 22.9761 19.9812 23.826 20.8796L24.5525 20.1924C23.909 19.5122 23.5693 18.6085 23.5693 17.432H22.5693ZM23.8309 20.8847C24.71 21.7882 25.8834 22.22 27.2933 22.22V21.22C26.1004 21.22 25.2045 20.8624 24.5476 20.1873L23.8309 20.8847ZM27.2933 22.22C28.7158 22.22 29.879 21.8035 30.7018 20.9059L29.9647 20.2301C29.3795 20.8685 28.516 21.22 27.2933 21.22V22.22ZM30.7014 20.9063C31.5289 20.0058 31.9212 18.8304 31.9212 17.432H30.9212C30.9212 18.6363 30.5883 19.5515 29.9651 20.2297L30.7014 20.9063ZM47.3693 23V23.5H47.8693V23H47.3693ZM45.6092 23L45.1108 22.9609L45.0685 23.5H45.6092V23ZM45.7373 21.368L46.2357 21.4071L46.3629 19.7855L45.3468 21.0557L45.7373 21.368ZM43.7853 22.84L43.5868 22.381L43.5822 22.3831L43.7853 22.84ZM35.4333 6.968V6.468H34.9333V6.968H35.4333ZM37.2253 6.968H37.7253V6.468H37.2253V6.968ZM38.3452 20.76L38.0137 21.1343L38.019 21.1389L38.3452 20.76ZM45.5773 6.968V6.468H45.0773V6.968H45.5773ZM47.3693 6.968H47.8693V6.468H47.3693V6.968ZM47.3693 22.5H45.6092V23.5H47.3693V22.5ZM46.1077 23.0391L46.2357 21.4071L45.2388 21.3289L45.1108 22.9609L46.1077 23.0391ZM45.3468 21.0557C44.8884 21.6287 44.3049 22.0705 43.5868 22.3811L43.9837 23.2989C44.8442 22.9268 45.5621 22.3873 46.1277 21.6803L45.3468 21.0557ZM43.5822 22.3831C42.8739 22.6979 42.1642 22.852 41.4492 22.852V23.852C42.313 23.852 43.1606 23.6648 43.9883 23.2969L43.5822 22.3831ZM41.4492 22.852C39.5177 22.852 38.1614 22.3819 37.286 21.5297C36.4131 20.68 35.9333 19.3675 35.9333 17.496H34.9333C34.9333 19.5285 35.4561 21.144 36.5885 22.2463C37.7184 23.3461 39.3702 23.852 41.4492 23.852V22.852ZM35.9333 17.496V6.968H34.9333V17.496H35.9333ZM35.4333 7.468H37.2253V6.468H35.4333V7.468ZM36.7253 6.968V17.72H37.7253V6.968H36.7253ZM36.7253 17.72C36.7253 19.1734 37.1246 20.3468 38.0137 21.1343L38.6768 20.3857C38.0725 19.8505 37.7253 18.9973 37.7253 17.72H36.7253ZM38.019 21.1389C38.901 21.8984 40.063 22.252 41.4492 22.252V21.252C40.2328 21.252 39.3255 20.9442 38.6715 20.3811L38.019 21.1389ZM41.4492 22.252C42.8994 22.252 44.0794 21.8979 44.8946 21.1017C45.712 20.3033 46.0773 19.1441 46.0773 17.72H45.0773C45.0773 18.9839 44.7545 19.8407 44.1959 20.3863C43.6351 20.9341 42.7511 21.252 41.4492 21.252V22.252ZM46.0773 17.72V6.968H45.0773V17.72H46.0773ZM45.5773 7.468H47.3693V6.468H45.5773V7.468ZM46.8693 6.968V23H47.8693V6.968H46.8693ZM61.1058 7.832L60.8151 8.23886L61.6058 8.80359V7.832H61.1058ZM61.1058 0.599998V0.0999985H60.6058V0.599998H61.1058ZM62.8978 0.599998H63.3978V0.0999985H62.8978V0.599998ZM62.8978 23L62.9669 23.4952L63.3978 23.4351V23H62.8978ZM53.5858 22.424L53.3576 22.8689L53.3591 22.8697L53.5858 22.424ZM53.8097 7.32L54.0183 7.77445L54.02 7.77365L53.8097 7.32ZM61.1058 9.4H61.6058V9.10627L61.3492 8.96326L61.1058 9.4ZM61.1058 21.464L61.1851 21.9577L61.6058 21.8901V21.464H61.1058ZM56.8818 7.212C58.5867 7.212 59.8813 7.57184 60.8151 8.23886L61.3964 7.42513C60.2395 6.59882 58.7182 6.212 56.8818 6.212V7.212ZM61.6058 7.832V0.599998H60.6058V7.832H61.6058ZM61.1058 1.1H62.8978V0.0999985H61.1058V1.1ZM62.3978 0.599998V23H63.3978V0.599998H62.3978ZM62.8287 22.5048C61.0127 22.7582 59.3401 22.884 57.8097 22.884V23.884C59.394 23.884 61.1134 23.7538 62.9669 23.4952L62.8287 22.5048ZM57.8097 22.884C56.3229 22.884 54.9938 22.5791 53.8124 21.9783L53.3591 22.8697C54.695 23.5489 56.1819 23.884 57.8097 23.884V22.884ZM53.8139 21.9791C53.0603 21.5926 52.5129 21.0744 52.1498 20.4273C51.7847 19.7768 51.5897 18.9668 51.5897 17.976H50.5897C50.5897 19.0972 50.8108 20.0846 51.2777 20.9167C51.7466 21.7522 52.4472 22.4021 53.3576 22.8689L53.8139 21.9791ZM51.5897 17.976V11.928H50.5897V17.976H51.5897ZM51.5897 11.928C51.5897 10.8748 51.8027 10.0238 52.2003 9.35016C52.5958 8.68027 53.1929 8.15316 54.0183 7.77445L53.6012 6.86555C52.6133 7.31884 51.8504 7.97573 51.3392 8.84184C50.8301 9.70421 50.5897 10.7412 50.5897 11.928H51.5897ZM54.02 7.77365C54.8161 7.40474 55.7656 7.212 56.8818 7.212V6.212C55.6513 6.212 54.5528 6.42459 53.5995 6.86634L54.02 7.77365ZM61.3492 8.96326C59.9711 8.19512 58.4682 7.812 56.8498 7.812V8.812C58.3033 8.812 59.6378 9.15421 60.8623 9.83674L61.3492 8.96326ZM56.8498 7.812C55.4273 7.812 54.2715 8.17377 53.4826 8.9881L54.2009 9.6839C54.7346 9.1329 55.5842 8.812 56.8498 8.812V7.812ZM53.4826 8.9881C52.7159 9.77954 52.3498 10.8081 52.3498 12.024H53.3498C53.3498 11.0212 53.6449 10.2578 54.2009 9.6839L53.4826 8.9881ZM52.3498 12.024V18.008H53.3498V12.024H52.3498ZM52.3498 18.008C52.3498 19.3792 52.8176 20.4796 53.807 21.2169C54.7688 21.9337 56.1515 22.252 57.8737 22.252V21.252C56.2467 21.252 55.1174 20.9463 54.4045 20.4151C53.7193 19.9044 53.3498 19.1328 53.3498 18.008H52.3498ZM57.8737 22.252C58.8661 22.252 59.9706 22.1528 61.1851 21.9577L61.0264 20.9703C59.8516 21.1592 58.8014 21.252 57.8737 21.252V22.252ZM61.6058 21.464V9.4H60.6058V21.464H61.6058ZM65.1208 18.936V18.436H64.6038L64.621 18.9527L65.1208 18.936ZM66.8167 18.936L67.3124 18.8699L67.2545 18.436H66.8167V18.936ZM68.2568 21.112L68.0027 21.5428L68.0111 21.5475L68.2568 21.112ZM73.6647 21.176L73.9026 21.6159L73.9116 21.6108L73.6647 21.176ZM73.9208 17.112L73.6033 17.4984L73.6101 17.5037L73.9208 17.112ZM69.0567 15.096L68.8885 15.567L68.8986 15.5703L69.0567 15.096ZM66.6888 13.688L67.0245 13.3175L67.0221 13.3154L66.6888 13.688ZM66.7527 7.992L66.3869 7.65114L66.3867 7.65145L66.7527 7.992ZM72.8968 6.84L72.7594 7.32076L72.7674 7.32305L72.7755 7.32507L72.8968 6.84ZM74.1768 7.288L73.9248 7.71989L74.1768 7.288ZM74.5608 7.512L75.0229 7.70288L75.1894 7.29983L74.8127 7.08011L74.5608 7.512ZM73.9528 8.984L73.66 9.38934L74.1732 9.75998L74.4149 9.17488L73.9528 8.984ZM68.2887 8.888L68.0028 8.47776L67.9969 8.48199L68.2887 8.888ZM68.3207 12.792L68.0433 13.2081L68.0523 13.2138L68.3207 12.792ZM70.7207 13.88L70.5729 14.3578L70.5863 14.3616L70.7207 13.88ZM73.4408 14.776L73.2627 15.2432H73.2628L73.4408 14.776ZM75.7128 16.344L75.3372 16.6741L75.7128 16.344ZM75.2008 22.2L74.8685 21.8263L74.8644 21.83L75.2008 22.2ZM65.1208 19.436H66.8167V18.436H65.1208V19.436ZM66.3211 19.0021C66.4694 20.1138 67.0381 20.9738 68.0028 21.5427L68.5107 20.6813C67.8114 20.2689 67.4201 19.6782 67.3124 18.8699L66.3211 19.0021ZM68.0111 21.5475C68.9202 22.0603 69.9118 22.316 70.9768 22.316V21.316C70.079 21.316 69.2573 21.1024 68.5024 20.6765L68.0111 21.5475ZM70.9768 22.316C72.0525 22.316 73.0319 22.0865 73.9025 21.6159L73.427 20.7361C72.7189 21.1189 71.9063 21.316 70.9768 21.316V22.316ZM73.9116 21.6108C74.8501 21.0782 75.3487 20.2548 75.3487 19.192H74.3487C74.3487 19.8785 74.0581 20.3778 73.4179 20.7412L73.9116 21.6108ZM75.3487 19.192C75.3487 18.1666 74.9868 17.3193 74.2314 16.7203L73.6101 17.5037C74.092 17.886 74.3487 18.4254 74.3487 19.192H75.3487ZM74.2381 16.7256C73.5833 16.1878 72.7881 15.7764 71.8639 15.4834L71.5616 16.4366C72.3868 16.6982 73.0635 17.0549 73.6034 17.4984L74.2381 16.7256ZM71.8639 15.4834C70.9916 15.2068 70.1086 14.9196 69.2149 14.6217L68.8986 15.5703C69.7969 15.8698 70.6846 16.1585 71.5616 16.4366L71.8639 15.4834ZM69.2249 14.6251C68.3888 14.3265 67.6569 13.8906 67.0245 13.3175L66.353 14.0585C67.086 14.7228 67.9327 15.2255 68.8886 15.5669L69.2249 14.6251ZM67.0221 13.3154C66.3151 12.6828 65.9727 11.9212 65.9727 11H64.9727C64.9727 12.2121 65.4411 13.2426 66.3554 14.0606L67.0221 13.3154ZM65.9727 11C65.9727 10.0575 66.3376 9.1724 67.1188 8.33255L66.3867 7.65145C65.4612 8.64627 64.9727 9.76651 64.9727 11H65.9727ZM67.1186 8.33286C67.8593 7.53796 69.1033 7.084 70.9768 7.084V6.084C68.9676 6.084 67.3956 6.56871 66.3869 7.65114L67.1186 8.33286ZM70.9768 7.084C71.6175 7.084 72.2109 7.16405 72.7594 7.32076L73.0341 6.35924C72.3879 6.17462 71.7013 6.084 70.9768 6.084V7.084ZM72.7755 7.32507C73.3652 7.4725 73.7336 7.60832 73.9248 7.71989L74.4287 6.85611C74.1079 6.66901 73.623 6.50616 73.018 6.35493L72.7755 7.32507ZM73.9248 7.71989L74.3088 7.94389L74.8127 7.08011L74.4287 6.85611L73.9248 7.71989ZM74.0986 7.32112L73.4906 8.79312L74.4149 9.17488L75.0229 7.70288L74.0986 7.32112ZM74.2455 8.57866C73.3753 7.95016 72.3067 7.652 71.0728 7.652V8.652C72.1428 8.652 72.9942 8.9085 73.66 9.38934L74.2455 8.57866ZM71.0728 7.652C69.8529 7.652 68.8151 7.91168 68.0029 8.4778L68.5746 9.2982C69.1704 8.88298 69.9886 8.652 71.0728 8.652V7.652ZM67.9969 8.48199C67.1852 9.06543 66.7647 9.87705 66.7647 10.872H67.7647C67.7647 10.2029 68.027 9.6919 68.5806 9.29401L67.9969 8.48199ZM66.7647 10.872C66.7647 11.8584 67.2076 12.6508 68.0434 13.208L68.5981 12.376C68.0259 11.9945 67.7647 11.5069 67.7647 10.872H66.7647ZM68.0523 13.2138C68.7982 13.6885 69.6396 14.0688 70.5729 14.3576L70.8686 13.4024C70.0099 13.1366 69.2513 12.7915 68.5892 12.3702L68.0523 13.2138ZM70.5863 14.3616C71.4888 14.6135 72.381 14.9073 73.2627 15.2432L73.6188 14.3088C72.7085 13.962 71.7873 13.6585 70.8551 13.3984L70.5863 14.3616ZM73.2628 15.2432C74.0845 15.5563 74.7735 16.0326 75.3372 16.6741L76.0883 16.0139C75.4147 15.2474 74.589 14.6784 73.6187 14.3088L73.2628 15.2432ZM75.3372 16.6741C75.8569 17.2655 76.1407 18.0764 76.1407 19.16H77.1407C77.1407 17.8969 76.8059 16.8305 76.0883 16.0139L75.3372 16.6741ZM76.1407 19.16C76.1407 20.176 75.7332 21.0578 74.8686 21.8263L75.5329 22.5737C76.5883 21.6356 77.1407 20.4906 77.1407 19.16H76.1407ZM74.8644 21.83C74.0516 22.569 72.8059 22.98 71.0407 22.98V23.98C72.9449 23.98 74.4726 23.5377 75.5371 22.57L74.8644 21.83ZM71.0407 22.98C69.3057 22.98 68.003 22.5622 67.0736 21.7845L66.4319 22.5515C67.5932 23.5232 69.1492 23.98 71.0407 23.98V22.98ZM67.0736 21.7845C66.1294 20.9945 65.6581 20.0472 65.6205 18.9193L64.621 18.9527C64.6688 20.3848 65.2854 21.5922 66.4319 22.5515L67.0736 21.7845ZM91.414 22.264L91.595 22.7301L92.0081 22.5697L91.8985 22.1403L91.414 22.264ZM84.662 23.224L84.6153 23.7218L84.6167 23.7219L84.662 23.224ZM82.454 22.52L82.2112 22.9571L82.2183 22.961L82.2256 22.9648L82.454 22.52ZM80.566 20.536L80.1207 20.7638L80.1274 20.7762L80.566 20.536ZM80.534 3.192L80.0984 2.94629L80.0938 2.95495L80.534 3.192ZM82.646 1.08L82.4032 0.64292L82.3937 0.648175L82.3845 0.653836L82.646 1.08ZM90.614 1.336L91.0748 1.53003L91.2555 1.10093L90.8403 0.890165L90.614 1.336ZM90.102 2.552L89.9291 3.02117L90.3774 3.18633L90.5628 2.74603L90.102 2.552ZM85.718 21.656L85.8161 21.1657L85.7907 21.1606L85.765 21.1582L85.718 21.656ZM91.03 20.76L91.5145 20.6363L91.3792 20.1065L90.8636 20.2885L91.03 20.76ZM91.233 21.7979C89.467 22.4835 87.8005 22.82 86.23 22.82V23.82C87.9448 23.82 89.7343 23.4525 91.595 22.7301L91.233 21.7979ZM86.23 22.82C85.9125 22.82 85.4086 22.7898 84.7073 22.7261L84.6167 23.7219C85.3234 23.7862 85.8648 23.82 86.23 23.82V22.82ZM84.7087 22.7262C84.105 22.6696 83.431 22.4596 82.6824 22.0752L82.2256 22.9648C83.0557 23.3911 83.8536 23.6504 84.6153 23.7218L84.7087 22.7262ZM82.6968 22.0829C82.024 21.7092 81.4574 21.1228 81.0045 20.2958L80.1274 20.7762C80.6559 21.7412 81.348 22.4775 82.2112 22.9571L82.6968 22.0829ZM81.0111 20.3083C80.5871 19.4796 80.362 18.4321 80.362 17.144H79.362C79.362 18.5439 79.6062 19.7578 80.1209 20.7637L81.0111 20.3083ZM80.362 17.144V6.872H79.362V17.144H80.362ZM80.362 6.872C80.362 5.28182 80.5842 4.15334 80.9742 3.42905L80.0938 2.95495C79.5878 3.89466 79.362 5.21951 79.362 6.872H80.362ZM80.9695 3.43766C81.3911 2.69026 82.03 2.0446 82.9075 1.50616L82.3845 0.653836C81.3846 1.26739 80.6156 2.02973 80.0985 2.94634L80.9695 3.43766ZM82.8888 1.51708C83.7607 1.03267 84.815 0.779999 86.07 0.779999V-0.220001C84.6797 -0.220001 83.4512 0.0606594 82.4032 0.64292L82.8888 1.51708ZM86.07 0.779999C87.6386 0.779999 89.0751 1.11545 90.3877 1.78183L90.8403 0.890165C89.3796 0.148552 87.7868 -0.220001 86.07 -0.220001V0.779999ZM90.1532 1.14197L89.6412 2.35797L90.5628 2.74603L91.0748 1.53003L90.1532 1.14197ZM90.2748 2.08283C89.0138 1.61824 87.8031 1.38 86.646 1.38V2.38C87.6649 2.38 88.7582 2.58976 89.9291 3.02117L90.2748 2.08283ZM86.646 1.38C84.9121 1.38 83.5187 1.78791 82.5591 2.6921C81.594 3.60156 81.154 4.93108 81.154 6.584H82.154C82.154 5.10092 82.546 4.07844 83.2449 3.41989C83.9493 2.75609 85.0519 2.38 86.646 2.38V1.38ZM81.154 6.584V17.08H82.154V6.584H81.154ZM81.154 17.08C81.154 18.5542 81.5117 19.7687 82.2962 20.652C83.0824 21.5373 84.2333 22.0179 85.671 22.1538L85.765 21.1582C84.4933 21.0381 83.6123 20.628 83.0438 19.988C82.4736 19.3459 82.154 18.4005 82.154 17.08H81.154ZM85.6199 22.1463C85.868 22.1959 86.125 22.22 86.39 22.22V21.22C86.1857 21.22 85.9947 21.2014 85.8161 21.1657L85.6199 22.1463ZM86.39 22.22C87.7476 22.22 89.3537 21.8818 91.1964 21.2315L90.8636 20.2885C89.0796 20.9182 87.5924 21.22 86.39 21.22V22.22ZM90.5455 20.8837L90.9295 22.3877L91.8985 22.1403L91.5145 20.6363L90.5455 20.8837ZM95.9755 23V23.5H96.4755V23H95.9755ZM94.1835 23H93.6835V23.5H94.1835V23ZM94.1835 0.599998V0.0999985H93.6835V0.599998H94.1835ZM95.9755 0.599998H96.4755V0.0999985H95.9755V0.599998ZM95.9755 22.5H94.1835V23.5H95.9755V22.5ZM94.6835 23V0.599998H93.6835V23H94.6835ZM94.1835 1.1H95.9755V0.0999985H94.1835V1.1ZM95.4755 0.599998V23H96.4755V0.599998H95.4755ZM111.491 21.56L111.108 21.2392L111.491 21.56ZM102.531 21.56L102.148 21.8815L102.155 21.8888L102.531 21.56ZM102.563 8.248L102.203 7.90159L102.203 7.90173L102.563 8.248ZM111.395 8.312L111.028 8.65144L111.031 8.6549L111.395 8.312ZM103.939 20.536L103.576 20.8796L103.581 20.8847L103.939 20.536ZM110.083 20.568L109.715 20.2297L109.715 20.2301L110.083 20.568ZM112.463 12.888V17.112H113.463V12.888H112.463ZM112.463 17.112C112.463 18.8079 112.001 20.1708 111.108 21.2392L111.875 21.8808C112.944 20.6025 113.463 19.0001 113.463 17.112H112.463ZM111.108 21.2392C110.248 22.2671 108.926 22.82 107.043 22.82V23.82C109.128 23.82 110.772 23.1995 111.875 21.8808L111.108 21.2392ZM107.043 22.82C105.161 22.82 103.812 22.2674 102.908 21.2312L102.155 21.8888C103.298 23.1993 104.957 23.82 107.043 23.82V22.82ZM102.914 21.2386C101.997 20.1461 101.527 18.782 101.527 17.112H100.527C100.527 18.9834 101.06 20.5846 102.148 21.8814L102.914 21.2386ZM101.527 17.112V12.888H100.527V17.112H101.527ZM101.527 12.888C101.527 10.9418 102.018 9.53782 102.924 8.59426L102.203 7.90173C101.06 9.09151 100.527 10.7809 100.527 12.888H101.527ZM102.924 8.59441C103.852 7.62852 105.179 7.116 106.979 7.116V6.116C104.982 6.116 103.365 6.69148 102.203 7.90159L102.924 8.59441ZM106.979 7.116C108.773 7.116 110.099 7.64622 111.028 8.65143L111.762 7.97257C110.601 6.71645 108.982 6.116 106.979 6.116V7.116ZM111.031 8.6549C111.967 9.64805 112.463 11.0379 112.463 12.888H113.463C113.463 10.8555 112.914 9.19461 111.759 7.9691L111.031 8.6549ZM111.671 17.432V12.888H110.671V17.432H111.671ZM111.671 12.888C111.671 11.2777 111.314 9.97663 110.513 9.07566C109.701 8.16354 108.512 7.748 107.043 7.748V8.748C108.326 8.748 109.201 9.10579 109.766 9.74034C110.34 10.386 110.671 11.4049 110.671 12.888H111.671ZM107.043 7.748C105.545 7.748 104.334 8.16149 103.506 9.07141C102.685 9.97242 102.319 11.2753 102.319 12.888H103.319C103.319 11.4074 103.657 10.3902 104.245 9.74459C104.825 9.10784 105.725 8.748 107.043 8.748V7.748ZM102.319 12.888V17.432H103.319V12.888H102.319ZM102.319 17.432C102.319 18.8155 102.726 19.9812 103.576 20.8796L104.302 20.1924C103.659 19.5122 103.319 18.6085 103.319 17.432H102.319ZM103.581 20.8847C104.46 21.7882 105.633 22.22 107.043 22.22V21.22C105.85 21.22 104.954 20.8624 104.298 20.1873L103.581 20.8847ZM107.043 22.22C108.466 22.22 109.629 21.8035 110.452 20.9059L109.715 20.2301C109.13 20.8685 108.266 21.22 107.043 21.22V22.22ZM110.451 20.9063C111.279 20.0058 111.671 18.8304 111.671 17.432H110.671C110.671 18.6363 110.338 19.5515 109.715 20.2297L110.451 20.9063ZM115.183 18.936V18.436H114.666L114.684 18.9527L115.183 18.936ZM116.879 18.936L117.375 18.8699L117.317 18.436H116.879V18.936ZM118.319 21.112L118.065 21.5428L118.074 21.5475L118.319 21.112ZM123.727 21.176L123.965 21.6159L123.974 21.6108L123.727 21.176ZM123.983 17.112L123.666 17.4984L123.673 17.5037L123.983 17.112ZM119.119 15.096L118.951 15.567L118.961 15.5703L119.119 15.096ZM116.751 13.688L117.087 13.3175L117.085 13.3154L116.751 13.688ZM116.815 7.992L116.449 7.65114L116.449 7.65145L116.815 7.992ZM122.959 6.84L122.822 7.32076L122.83 7.32305L122.838 7.32507L122.959 6.84ZM124.239 7.288L123.987 7.71989L124.239 7.288ZM124.623 7.512L125.085 7.70288L125.252 7.29983L124.875 7.08011L124.623 7.512ZM124.015 8.984L123.723 9.38934L124.236 9.75998L124.477 9.17488L124.015 8.984ZM118.351 8.888L118.065 8.47776L118.059 8.48199L118.351 8.888ZM118.383 12.792L118.106 13.2081L118.115 13.2138L118.383 12.792ZM120.783 13.88L120.635 14.3578L120.649 14.3616L120.783 13.88ZM123.503 14.776L123.325 15.2432H123.325L123.503 14.776ZM125.775 16.344L125.4 16.6741L125.775 16.344ZM125.263 22.2L124.931 21.8263L124.927 21.83L125.263 22.2ZM115.183 19.436H116.879V18.436H115.183V19.436ZM116.384 19.0021C116.532 20.1138 117.101 20.9738 118.065 21.5427L118.573 20.6813C117.874 20.2689 117.483 19.6782 117.375 18.8699L116.384 19.0021ZM118.074 21.5475C118.983 22.0603 119.974 22.316 121.039 22.316V21.316C120.142 21.316 119.32 21.1024 118.565 20.6765L118.074 21.5475ZM121.039 22.316C122.115 22.316 123.094 22.0865 123.965 21.6159L123.489 20.7361C122.781 21.1189 121.969 21.316 121.039 21.316V22.316ZM123.974 21.6108C124.913 21.0782 125.411 20.2548 125.411 19.192H124.411C124.411 19.8785 124.121 20.3778 123.48 20.7412L123.974 21.6108ZM125.411 19.192C125.411 18.1666 125.049 17.3193 124.294 16.7203L123.673 17.5037C124.155 17.886 124.411 18.4254 124.411 19.192H125.411ZM124.301 16.7256C123.646 16.1878 122.851 15.7764 121.926 15.4834L121.624 16.4366C122.449 16.6982 123.126 17.0549 123.666 17.4984L124.301 16.7256ZM121.926 15.4834C121.054 15.2068 120.171 14.9196 119.277 14.6217L118.961 15.5703C119.859 15.8698 120.747 16.1585 121.624 16.4366L121.926 15.4834ZM119.287 14.6251C118.451 14.3265 117.719 13.8906 117.087 13.3175L116.415 14.0585C117.148 14.7228 117.995 15.2255 118.951 15.5669L119.287 14.6251ZM117.085 13.3154C116.378 12.6828 116.035 11.9212 116.035 11H115.035C115.035 12.2121 115.504 13.2426 116.418 14.0606L117.085 13.3154ZM116.035 11C116.035 10.0575 116.4 9.1724 117.181 8.33255L116.449 7.65145C115.524 8.64627 115.035 9.76651 115.035 11H116.035ZM117.181 8.33286C117.922 7.53796 119.166 7.084 121.039 7.084V6.084C119.03 6.084 117.458 6.56871 116.449 7.65114L117.181 8.33286ZM121.039 7.084C121.68 7.084 122.273 7.16405 122.822 7.32076L123.097 6.35924C122.45 6.17462 121.764 6.084 121.039 6.084V7.084ZM122.838 7.32507C123.428 7.4725 123.796 7.60832 123.987 7.71989L124.491 6.85611C124.17 6.66901 123.685 6.50616 123.081 6.35493L122.838 7.32507ZM123.987 7.71989L124.371 7.94389L124.875 7.08011L124.491 6.85611L123.987 7.71989ZM124.161 7.32112L123.553 8.79312L124.477 9.17488L125.085 7.70288L124.161 7.32112ZM124.308 8.57866C123.438 7.95016 122.369 7.652 121.135 7.652V8.652C122.205 8.652 123.057 8.9085 123.723 9.38934L124.308 8.57866ZM121.135 7.652C119.915 7.652 118.878 7.91168 118.065 8.4778L118.637 9.2982C119.233 8.88298 120.051 8.652 121.135 8.652V7.652ZM118.059 8.48199C117.248 9.06543 116.827 9.87705 116.827 10.872H117.827C117.827 10.2029 118.089 9.6919 118.643 9.29401L118.059 8.48199ZM116.827 10.872C116.827 11.8584 117.27 12.6508 118.106 13.208L118.661 12.376C118.088 11.9945 117.827 11.5069 117.827 10.872H116.827ZM118.115 13.2138C118.861 13.6885 119.702 14.0688 120.635 14.3576L120.931 13.4024C120.072 13.1366 119.314 12.7915 118.652 12.3702L118.115 13.2138ZM120.649 14.3616C121.551 14.6135 122.443 14.9073 123.325 15.2432L123.681 14.3088C122.771 13.962 121.85 13.6585 120.918 13.3984L120.649 14.3616ZM123.325 15.2432C124.147 15.5563 124.836 16.0326 125.4 16.6741L126.151 16.0139C125.477 15.2474 124.651 14.6784 123.681 14.3088L123.325 15.2432ZM125.4 16.6741C125.919 17.2655 126.203 18.0764 126.203 19.16H127.203C127.203 17.8969 126.868 16.8305 126.151 16.0139L125.4 16.6741ZM126.203 19.16C126.203 20.176 125.796 21.0578 124.931 21.8263L125.595 22.5737C126.651 21.6356 127.203 20.4906 127.203 19.16H126.203ZM124.927 21.83C124.114 22.569 122.868 22.98 121.103 22.98V23.98C123.007 23.98 124.535 23.5377 125.6 22.57L124.927 21.83ZM121.103 22.98C119.368 22.98 118.065 22.5622 117.136 21.7845L116.494 22.5515C117.656 23.5232 119.212 23.98 121.103 23.98V22.98ZM117.136 21.7845C116.192 20.9945 115.721 20.0472 115.683 18.9193L114.684 18.9527C114.731 20.3848 115.348 21.5922 116.494 22.5515L117.136 21.7845ZM138.949 20.504L139.394 20.2763L139.162 19.8238L138.714 20.0627L138.949 20.504ZM139.652 21.88L139.913 22.3068L140.309 22.0651L140.098 21.6523L139.652 21.88ZM130.533 8.12L130.202 7.74506L130.198 7.74835L130.533 8.12ZM138.949 8.12L138.599 8.4775L138.607 8.48501L138.949 8.12ZM140.452 16.216L140.48 16.7152L140.952 16.6888V16.216H140.452ZM130.725 16.76L130.697 16.2608L130.225 16.2872V16.76H130.725ZM131.973 21.208L132.24 20.7856L132.235 20.7822L131.973 21.208ZM138.661 14.616L138.685 15.1154L139.161 15.0924V14.616H138.661ZM137.924 9.592L137.538 9.90942L137.544 9.91623L137.924 9.592ZM136.389 8.472L136.236 8.94821L136.245 8.95101L136.254 8.95348L136.389 8.472ZM130.725 15H130.225V15.5248L130.749 15.4994L130.725 15ZM134.277 22.316C135.849 22.316 137.487 21.8486 139.184 20.9453L138.714 20.0627C137.124 20.9088 135.648 21.316 134.277 21.316V22.316ZM138.503 20.7317L139.207 22.1077L140.098 21.6523L139.394 20.2763L138.503 20.7317ZM139.392 21.4532C137.822 22.4117 136.194 22.884 134.501 22.884V23.884C136.391 23.884 138.198 23.3537 139.913 22.3068L139.392 21.4532ZM134.501 22.884C132.702 22.884 131.447 22.505 130.646 21.833C129.862 21.1751 129.432 20.167 129.432 18.712H128.432C128.432 20.3717 128.931 21.6996 130.003 22.599C131.058 23.4844 132.587 23.884 134.501 23.884V22.884ZM129.432 18.712V12.152H128.432V18.712H129.432ZM129.432 12.152C129.432 10.5343 129.927 9.33764 130.867 8.49165L130.198 7.74835C129.005 8.82236 128.432 10.3137 128.432 12.152H129.432ZM130.863 8.49492C131.841 7.63232 133.144 7.18 134.82 7.18V6.18C132.956 6.18 131.4 6.68767 130.202 7.74508L130.863 8.49492ZM134.82 7.18C136.5 7.18 137.736 7.63313 138.599 8.47742L139.298 7.76258C138.199 6.68687 136.682 6.18 134.82 6.18V7.18ZM138.607 8.48501C139.486 9.30832 139.952 10.4753 139.952 12.056H140.952C140.952 10.2661 140.416 8.80901 139.29 7.75499L138.607 8.48501ZM139.952 12.056V16.216H140.952V12.056H139.952ZM140.425 15.7168L130.697 16.2608L130.752 17.2592L140.48 16.7152L140.425 15.7168ZM130.225 16.76V18.712H131.225V16.76H130.225ZM130.225 18.712C130.225 20.0011 130.702 21.0132 131.71 21.6338L132.235 20.7822C131.579 20.3788 131.225 19.7269 131.225 18.712H130.225ZM131.705 21.6304C132.439 22.0951 133.303 22.316 134.277 22.316V21.316C133.458 21.316 132.786 21.1316 132.24 20.7856L131.705 21.6304ZM139.161 14.616V11.832H138.161V14.616H139.161ZM139.161 11.832C139.161 10.8221 138.888 9.95241 138.305 9.26777L137.544 9.91623C137.942 10.3836 138.161 11.0072 138.161 11.832H139.161ZM138.311 9.27463C137.78 8.62848 137.187 8.17646 136.523 7.99052L136.254 8.95348C136.656 9.0662 137.088 9.36086 137.538 9.90937L138.311 9.27463ZM136.541 7.99579C135.961 7.81015 135.376 7.716 134.788 7.716V8.716C135.268 8.716 135.75 8.79252 136.236 8.94821L136.541 7.99579ZM134.788 7.716C133.52 7.716 132.429 8.06441 131.556 8.79189L132.197 9.56011C132.86 9.00759 133.711 8.716 134.788 8.716V7.716ZM131.556 8.79189C130.637 9.55829 130.225 10.7275 130.225 12.184H131.225C131.225 10.9098 131.58 10.0737 132.197 9.56011L131.556 8.79189ZM130.225 12.184V15H131.225V12.184H130.225ZM130.749 15.4994L138.685 15.1154L138.636 14.1166L130.7 14.5006L130.749 15.4994ZM146.999 22.04L147.468 22.2144L147.649 21.7293L147.158 21.5657L146.999 22.04ZM146.488 23.416L146.35 23.8968L146.795 24.0238L146.956 23.5904L146.488 23.416ZM143.896 21.784L144.302 21.4934L143.896 21.784ZM143.096 0.599998V0.0999985H142.596V0.599998H143.096ZM144.887 0.599998H145.387V0.0999985H144.887V0.599998ZM144.887 6.968H144.387V7.468H144.887V6.968ZM148.727 6.968L149.183 7.17425L149.503 6.468H148.727V6.968ZM147.96 8.664V9.164H148.282L148.415 8.87025L147.96 8.664ZM144.887 8.664V8.164H144.387V8.664H144.887ZM146.531 21.8656L146.019 23.2416L146.956 23.5904L147.468 22.2144L146.531 21.8656ZM146.625 22.9352C145.501 22.614 144.75 22.1201 144.302 21.4934L143.489 22.0746C144.108 22.9412 145.085 23.5353 146.35 23.8968L146.625 22.9352ZM144.302 21.4934C143.848 20.8579 143.596 19.9683 143.596 18.776H142.596C142.596 20.101 142.876 21.2168 143.489 22.0746L144.302 21.4934ZM143.596 18.776V0.599998H142.596V18.776H143.596ZM143.096 1.1H144.887V0.0999985H143.096V1.1ZM144.387 0.599998V6.968H145.387V0.599998H144.387ZM144.887 7.468H148.727V6.468H144.887V7.468ZM148.272 6.76174L147.504 8.45775L148.415 8.87025L149.183 7.17425L148.272 6.76174ZM147.96 8.164H144.887V9.164H147.96V8.164ZM144.387 8.664V18.776H145.387V8.664H144.387ZM144.387 18.776C144.387 19.6957 144.577 20.4968 144.996 21.1436C145.418 21.7966 146.046 22.2493 146.841 22.5143L147.158 21.5657C146.545 21.3614 146.117 21.0354 145.835 20.6004C145.55 20.1592 145.387 19.5629 145.387 18.776H144.387Z" fill="#D56EF5"/>
</svg>
