<svg width="28" height="26" viewBox="0 0 28 26" fill="none" xmlns="http://www.w3.org/2000/svg">
<path d="M14 26L12.565 24.6876C10.0917 22.3938 8.05 20.4134 6.44 18.7462C4.83 17.0791 3.54667 15.5894 2.59 14.2769C1.63333 12.9645 0.9625 11.7763 0.5775 10.7121C0.1925 9.64802 0 8.57208 0 7.48431C0 5.35607 0.705833 3.57663 2.1175 2.14598C3.52917 0.715325 5.27333 0 7.35 0C8.68 0 9.91083 0.319236 11.0425 0.957708C12.1742 1.59618 13.16 2.51842 14 3.72442C14.98 2.44748 16.0183 1.5075 17.115 0.904502C18.2117 0.3015 19.39 0 20.65 0C22.7267 0 24.4708 0.715325 25.8825 2.14598C27.2942 3.57663 28 5.35607 28 7.48431C28 8.57208 27.8075 9.64802 27.4225 10.7121C27.0375 11.7763 26.3667 12.9645 25.41 14.2769C24.4533 15.5894 23.17 17.0791 21.56 18.7462C19.95 20.4134 17.9083 22.3938 15.435 24.6876L14 26ZM14 23.1978C16.3567 20.9986 18.2992 19.1128 19.8275 17.5402C21.3558 15.9677 22.5692 14.5903 23.4675 13.4079C24.3658 12.2256 24.9958 11.1733 25.3575 10.251C25.7192 9.32879 25.9 8.40655 25.9 7.48431C25.9 5.9236 25.41 4.64075 24.43 3.63574C23.45 2.63074 22.19 2.12824 20.65 2.12824C19.46 2.12824 18.3517 2.50068 17.325 3.24557C16.2983 3.99045 15.47 5.03683 14.84 6.38472H13.125C12.5183 5.06048 11.7017 4.02001 10.675 3.2633C9.64833 2.50659 8.54 2.12824 7.35 2.12824C5.81 2.12824 4.55 2.63074 3.57 3.63574C2.59 4.64075 2.1 5.9236 2.1 7.48431C2.1 8.40655 2.28083 9.3347 2.6425 10.2688C3.00417 11.2028 3.63417 12.2669 4.5325 13.4611C5.43083 14.6553 6.65 16.0327 8.19 17.5935C9.73 19.1542 11.6667 21.0223 14 23.1978Z" fill="#4F4F4F"/>
</svg>
