<svg width="24" height="26" viewBox="0 0 24 26" fill="none" xmlns="http://www.w3.org/2000/svg">
<path d="M4.26 20.2266C5.52 19.2773 6.77 18.5492 8.01 18.0421C9.25 17.5351 10.58 17.2816 12 17.2816C13.42 17.2816 14.755 17.5351 16.005 18.0421C17.255 18.5492 18.51 19.2773 19.77 20.2266C20.65 19.0616 21.275 17.8857 21.645 16.6991C22.015 15.5125 22.2 14.2611 22.2 12.945C22.2 9.81665 21.225 7.20068 19.275 5.09711C17.325 2.99354 14.9 1.94176 12 1.94176C9.1 1.94176 6.675 2.99354 4.725 5.09711C2.775 7.20068 1.8 9.81665 1.8 12.945C1.8 14.2611 1.99 15.5125 2.37 16.6991C2.75 17.8857 3.38 19.0616 4.26 20.2266ZM12 13.9159C10.84 13.9159 9.865 13.4898 9.075 12.6376C8.285 11.7854 7.89 10.7336 7.89 9.48224C7.89 8.23088 8.285 7.1791 9.075 6.32689C9.865 5.47467 10.84 5.04856 12 5.04856C13.16 5.04856 14.135 5.47467 14.925 6.32689C15.715 7.1791 16.11 8.23088 16.11 9.48224C16.11 10.7336 15.715 11.7854 14.925 12.6376C14.135 13.4898 13.16 13.9159 12 13.9159ZM12 25.8901C10.36 25.8901 8.81 25.5503 7.35 24.8706C5.89 24.191 4.615 23.2633 3.525 22.0875C2.435 20.9116 1.575 19.5362 0.945 17.9612C0.315 16.3863 0 14.7142 0 12.945C0 11.1543 0.315 9.47684 0.945 7.91265C1.575 6.34846 2.435 4.97844 3.525 3.8026C4.615 2.62676 5.89 1.69904 7.35 1.01942C8.81 0.339807 10.36 0 12 0C13.66 0 15.215 0.339807 16.665 1.01942C18.115 1.69904 19.385 2.62676 20.475 3.8026C21.565 4.97844 22.425 6.34846 23.055 7.91265C23.685 9.47684 24 11.1543 24 12.945C24 14.7142 23.685 16.3863 23.055 17.9612C22.425 19.5362 21.565 20.9116 20.475 22.0875C19.385 23.2633 18.115 24.191 16.665 24.8706C15.215 25.5503 13.66 25.8901 12 25.8901ZM12 23.9483C13.1 23.9483 14.175 23.7757 15.225 23.4305C16.275 23.0853 17.31 22.4812 18.33 21.6182C17.31 20.8415 16.27 20.2482 15.21 19.8383C14.15 19.4283 13.08 19.2234 12 19.2234C10.92 19.2234 9.85 19.4283 8.79 19.8383C7.73 20.2482 6.69 20.8415 5.67 21.6182C6.69 22.4812 7.725 23.0853 8.775 23.4305C9.825 23.7757 10.9 23.9483 12 23.9483ZM12 11.9742C12.68 11.9742 13.235 11.7422 13.665 11.2784C14.095 10.8145 14.31 10.2158 14.31 9.48224C14.31 8.74869 14.095 8.14998 13.665 7.68611C13.235 7.22225 12.68 6.99032 12 6.99032C11.32 6.99032 10.765 7.22225 10.335 7.68611C9.905 8.14998 9.69 8.74869 9.69 9.48224C9.69 10.2158 9.905 10.8145 10.335 11.2784C10.765 11.7422 11.32 11.9742 12 11.9742Z" fill="#4F4F4F"/>
</svg>
