<svg width="21" height="24" viewBox="0 0 21 24" fill="none" xmlns="http://www.w3.org/2000/svg">
<path d="M19.7167 23.7326L12.0458 15.0636C11.4625 15.6349 10.7819 16.0799 10.0042 16.3985C9.22639 16.7172 8.4 16.8765 7.525 16.8765C5.425 16.8765 3.64583 16.0524 2.1875 14.4043C0.729167 12.7563 0 10.7676 0 8.43825C0 6.10894 0.729167 4.12024 2.1875 2.47214C3.64583 0.824047 5.41528 0 7.49583 0C9.55694 0 11.3118 0.824047 12.7604 2.47214C14.209 4.12024 14.9333 6.10894 14.9333 8.43825C14.9333 9.38315 14.7972 10.2951 14.525 11.1741C14.2528 12.0531 13.8444 12.8771 13.3 13.6462L21 22.2822L19.7167 23.7326ZM7.49583 14.8988C9.07083 14.8988 10.4125 14.267 11.5208 13.0035C12.6292 11.7399 13.1833 10.2182 13.1833 8.43825C13.1833 6.6583 12.6292 5.13656 11.5208 3.87302C10.4125 2.60948 9.07083 1.97771 7.49583 1.97771C5.90139 1.97771 4.54514 2.60948 3.42708 3.87302C2.30903 5.13656 1.75 6.6583 1.75 8.43825C1.75 10.2182 2.30903 11.7399 3.42708 13.0035C4.54514 14.267 5.90139 14.8988 7.49583 14.8988Z" fill="#4F4F4F"/>
</svg>
